#!OML:ASF F:\VICON\USERDATA\INSTALL\rory3\rory3.ASF
:FULLY-SPECIFIED
:DEGREES
2325
root 4.9281 18.0568 6.37938 183.157 48.0179 183.522
lowerback 9.81051 5.49655 3.48271
upperback 1.47153 7.69497 -1.89683
thorax -3.20889 3.82458 -4.82704
lowerneck -13.6106 1.79426 -8.35423
upperneck 45.3375 11.5796 2.33756
head 19.2138 5.13252 5.42353
rclavicle -4.28381e-014 2.22639e-014
rhumerus -23.9516 -7.90099 -83.8319
rradius 40.5435
rwrist 3.64088
rhand -14.5317 8.60225
rfingers 7.12502
rthumb 11.6163 -21.0558
lclavicle -4.28381e-014 2.22639e-014
lhumerus -42.8835 6.47322 79.4307
lradius 36.7633
lwrist -6.55587
lhand -18.1083 26.224
lfingers 7.12502
lthumb 8.16578 56.0463
rfemur 6.98565 -5.20574 23.4303
rtibia 26.3595
rfoot -9.40202 3.81404
rtoes -12.0262
lfemur -21.8245 0.29202 -25.7145
ltibia 24.5863
lfoot 5.86495 -7.15196
ltoes 2.98116
2326
root 4.80898 18.0523 6.47612 183.32 48.4484 183.512
lowerback 9.91044 5.56895 3.668
upperback 1.52276 7.81486 -1.93253
thorax -3.1683 3.88596 -4.98471
lowerneck -13.647 1.67844 -8.4478
upperneck 45.4076 11.4804 2.27351
head 19.2856 5.05875 5.404
rclavicle -9.47209e-014 -7.95139e-015
rhumerus -23.4759 -7.50002 -83.9059
rradius 40.7688
rwrist 3.50257
rhand -14.7304 8.45577
rfingers 7.12502
rthumb 11.4248 -21.213
lclavicle -9.47209e-014 -7.95139e-015
lhumerus -42.8163 6.55199 79.548
lradius 36.7722
lwrist -6.79725
lhand -18.4106 26.1574
lfingers 7.12502
lthumb 7.87402 55.9907
rfemur 6.96177 -4.76646 23.6095
rtibia 25.1507
rfoot -10.2283 2.99337
rtoes -13.5819
lfemur -22.2916 -0.148887 -25.5451
ltibia 24.0941
lfoot 6.50815 -6.51467
ltoes 3.81211
2327
root 4.68809 18.0454 6.57336 183.952 48.9611 184.007
lowerback 9.9028 5.66645 4.15022
upperback 1.5527 7.99628 -1.86027
thorax -3.05793 3.97577 -5.18618
lowerneck -13.6345 1.58224 -8.6554
upperneck 45.3839 11.4181 2.18824
head 19.2745 4.98311 5.38375
rclavicle -7.73272e-014 1.19271e-015
rhumerus -22.9852 -7.19516 -83.8919
rradius 40.9642
rwrist 3.50676
rhand -14.8283 8.09459
rfingers 7.12502
rthumb 11.3303 -21.5793
lclavicle -7.73272e-014 1.19271e-015
lhumerus -42.5309 6.65855 79.6745
lradius 36.5904
lwrist -7.06412
lhand -18.4371 25.9906
lfingers 7.12502
lthumb 7.84851 55.825
rfemur 6.72425 -4.06443 24.2017
rtibia 24.153
rfoot -10.8297 2.02907
rtoes -14.2603
lfemur -22.817 -0.473242 -25.021
ltibia 23.4771
lfoot 7.20193 -5.98009
ltoes 2.9116
2328
root 4.57279 18.0391 6.66227 184.444 49.5456 184.316
lowerback 9.79205 5.80714 4.52681
upperback 1.58908 8.21848 -1.83943
thorax -2.88364 4.09043 -5.37212
lowerneck -13.6237 1.46545 -8.79546
upperneck 45.3981 11.3663 2.02136
head 19.3052 4.91223 5.32219
rclavicle 1.65985e-014 -1.19271e-015
rhumerus -22.4975 -7.15017 -83.8515
rradius 40.9492
rwrist 3.72484
rhand -14.7703 8.2426
rfingers 7.12502
rthumb 11.3863 -21.4283
lclavicle 1.65985e-014 -1.19271e-015
lhumerus -42.3392 6.68788 79.7992
lradius 36.4746
lwrist -7.29673
lhand -18.3516 26.1045
lfingers 7.12502
lthumb 7.93101 55.9358
rfemur 6.36891 -3.51562 24.5232
rtibia 23.4654
rfoot -11.3767 1.54818
rtoes -13.4322
lfemur -23.2667 -0.612785 -24.6747
ltibia 22.867
lfoot 7.80461 -5.5024
ltoes 1.49448
2329
root 4.4696 18.0402 6.72904 184.096 50.3068 183.753
lowerback 9.56498 6.00766 4.38367
upperback 1.72629 8.46205 -1.98134
thorax -2.58484 4.23047 -5.42092
lowerneck -13.5862 1.33659 -8.89192
upperneck 45.4747 11.2973 1.87763
head 19.3714 4.84589 5.26739
rclavicle 9.56154e-014 -2.3059e-014
rhumerus -22.074 -7.00062 -83.8559
rradius 40.8814
rwrist 3.82765
rhand -14.774 8.46879
rfingers 7.12502
rthumb 11.3827 -21.2023
lclavicle 9.56154e-014 -2.3059e-014
lhumerus -42.2414 6.82335 79.8197
lradius 36.3892
lwrist -7.63185
lhand -18.4571 26.0141
lfingers 7.12502
lthumb 7.82918 55.8491
rfemur 6.14488 -3.55447 23.9056
rtibia 23.0495
rfoot -12.0303 1.90248
rtoes -11.5258
lfemur -23.3565 -0.586699 -25.0133
ltibia 22.2537
lfoot 8.26317 -5.07151
ltoes 0.620002
2330
root 4.34029 18.036 6.84767 184.497 50.6014 184.058
lowerback 9.99636 6.0139 4.62565
upperback 1.65948 8.51234 -1.96637
thorax -2.85289 4.24147 -5.60342
lowerneck -13.6172 1.21005 -8.97215
upperneck 45.5547 11.1983 1.77825
head 19.4559 4.76957 5.22927
rclavicle -4.8901e-014 7.15625e-015
rhumerus -21.6858 -6.8969 -83.918
rradius 40.822
rwrist 3.93251
rhand -14.9451 8.21907
rfingers 7.12502
rthumb 11.2177 -21.461
lclavicle -4.8901e-014 7.15625e-015
lhumerus -41.9519 7.15756 79.7187
lradius 36.1577
lwrist -7.83575
lhand -18.6658 25.9201
lfingers 7.12502
lthumb 7.62774 55.7625
rfemur 5.39707 -3.15819 24.3877
rtibia 22.8742
rfoot -12.3541 1.28552
rtoes -9.39906
lfemur -23.8817 -0.704403 -24.5715
ltibia 21.6239
lfoot 9.07353 -4.85127
ltoes 0.0257248
2331
root 4.2173 18.0353 6.9543 184.694 50.9263 184.07
lowerback 10.2788 6.01753 4.63715
upperback 1.57961 8.52834 -1.96318
thorax -3.08858 4.23687 -5.65216
lowerneck -13.5063 1.12171 -9.04386
upperneck 45.5467 11.1299 1.63328
head 19.4441 4.71249 5.15266
rclavicle -1.23147e-013 2.0276e-014
rhumerus -21.4583 -6.84698 -83.9448
rradius 40.763
rwrist 4.09388
rhand -15.19 8.11306
rfingers 7.12502
rthumb 10.9815 -21.5797
lclavicle -1.23147e-013 2.0276e-014
lhumerus -42.063 7.47759 79.7014
lradius 36.3141
lwrist -7.65853
lhand -19.251 26.1229
lfingers 7.12502
lthumb 7.0629 55.985
rfemur 4.62788 -2.7186 24.5846
rtibia 22.8643
rfoot -12.7231 0.752414
rtoes -7.6977
lfemur -24.3176 -0.790771 -24.3428
ltibia 21.0162
lfoot 9.44456 -4.43072
ltoes -0.949926
2332
root 4.10278 18.0375 7.04626 184.867 51.2397 184.061
lowerback 10.3819 6.01167 4.63138
upperback 1.50473 8.52239 -1.91654
thorax -3.23254 4.22444 -5.62027
lowerneck -13.3767 1.02457 -9.16265
upperneck 45.604 11.0807 1.5179
head 19.4642 4.66033 5.10842
rclavicle 8.51792e-014 -3.57812e-015
rhumerus -21.3358 -6.69884 -83.9177
rradius 40.7565
rwrist 4.19595
rhand -15.1191 8.12591
rfingers 7.12502
rthumb 11.0498 -21.5632
lclavicle 8.51792e-014 -3.57812e-015
lhumerus -42.5538 7.77759 79.7119
lradius 36.7955
lwrist -7.39131
lhand -19.6243 26.1844
lfingers 7.12502
lthumb 6.70251 56.0583
rfemur 3.92191 -2.46033 24.6402
rtibia 22.9202
rfoot -13.2206 0.636708
rtoes -7.29531
lfemur -24.7168 -0.734329 -24.1924
ltibia 20.6082
lfoot 9.27169 -4.25806
ltoes -2.81154
2333
root 3.99408 18.0363 7.12634 185.026 51.5862 184.052
lowerback 10.2052 5.8477 4.70586
upperback 1.60392 8.30768 -1.8148
thorax -3.06298 4.12597 -5.5039
lowerneck -13.5797 1.06573 -9.52977
upperneck 45.6364 11.3353 1.3893
head 19.5258 4.65449 5.16537
rclavicle 1.21805e-013 -1.82882e-014
rhumerus -20.9426 -5.97692 -83.9594
rradius 40.6865
rwrist 4.19323
rhand -14.8144 8.11225
rfingers 7.12502
rthumb 11.3437 -21.561
lclavicle 1.21805e-013 -1.82882e-014
lhumerus -42.8217 8.93008 79.4665
lradius 37.1349
lwrist -7.59919
lhand -19.0467 26.5405
lfingers 7.12502
lthumb 7.26009 56.396
rfemur 3.28563 -2.38193 24.5854
rtibia 22.905
rfoot -13.5977 0.80092
rtoes -7.33274
lfemur -25.0734 -0.735633 -24.029
ltibia 20.3859
lfoot 8.63226 -4.16085
ltoes -5.1063
2334
root 3.88996 18.0395 7.20024 185.031 51.8878 183.941
lowerback 9.98462 5.49253 4.67462
upperback 1.77006 7.82871 -1.60882
thorax -2.86058 3.89954 -5.18933
lowerneck -13.8067 1.31385 -10.191
upperneck 45.5115 11.9887 1.19238
head 19.4468 4.74753 5.28552
rclavicle -3.65764e-014 -1.59028e-014
rhumerus -20.4241 -4.83368 -84.0326
rradius 40.4824
rwrist 4.23118
rhand -14.5832 8.40898
rfingers 7.12502
rthumb 11.5667 -21.2518
lclavicle -3.65764e-014 -1.59028e-014
lhumerus -43.1573 10.8034 79.0655
lradius 37.4206
lwrist -8.09853
lhand -17.9508 26.8924
lfingers 7.12502
lthumb 8.31782 56.7086
rfemur 2.71604 -2.50598 24.385
rtibia 22.9138
rfoot -13.8441 1.13347
rtoes -6.65019
lfemur -25.3342 -1.20885 -23.7614
ltibia 20.3374
lfoot 7.83467 -3.61669
ltoes -5.06632
2335
root 3.78299 18.0476 7.27971 185.063 52.039 183.904
lowerback 9.97312 5.26026 4.61911
upperback 1.81247 7.51726 -1.4539
thorax -2.87531 3.74449 -4.96577
lowerneck -13.8468 1.39577 -10.5728
upperneck 45.4873 12.2688 1.09774
head 19.4138 4.77048 5.34686
rclavicle -1.56444e-013 3.49861e-014
rhumerus -20.2108 -4.26718 -84.0359
rradius 40.4245
rwrist 4.23978
rhand -14.4275 8.47839
rfingers 7.12502
rthumb 11.7169 -21.1739
lclavicle -1.56444e-013 3.49861e-014
lhumerus -43.5946 11.7815 78.8743
lradius 37.8362
lwrist -8.09247
lhand -17.3848 27.318
lfingers 7.12502
lthumb 8.86405 57.1118
rfemur 2.08494 -2.69717 24.2676
rtibia 23.0732
rfoot -14.0917 1.52458
rtoes -5.5078
lfemur -25.5795 -1.70843 -23.4081
ltibia 20.3958
lfoot 7.01245 -3.2762
ltoes -3.42445
2336
root 3.67149 18.0459 7.37119 185.058 52.0704 183.909
lowerback 10.2059 5.20344 4.53756
upperback 1.81074 7.44598 -1.39609
thorax -3.03181 3.70396 -4.88201
lowerneck -13.8469 1.25648 -10.5309
upperneck 45.5382 12.049 1.04679
head 19.4794 4.67454 5.28481
rclavicle -1.84373e-014 -2.18663e-014
rhumerus -20.2528 -4.27585 -83.9789
rradius 40.56
rwrist 4.03378
rhand -14.2685 8.43021
rfingers 7.12502
rthumb 11.8702 -21.2133
lclavicle -1.84373e-014 -2.18663e-014
lhumerus -43.7607 11.6721 78.9669
lradius 38.0953
lwrist -7.43951
lhand -17.5657 27.3165
lfingers 7.12502
lthumb 8.68945 57.1177
rfemur 1.43735 -2.68999 24.2886
rtibia 23.3664
rfoot -14.3054 1.66885
rtoes -4.38201
lfemur -25.7076 -1.75147 -23.1876
ltibia 20.575
lfoot 5.91192 -3.74668
ltoes -4.85808
2337
root 3.56268 18.0371 7.46165 185.122 52.1224 184.036
lowerback 10.4462 5.16873 4.52499
upperback 1.78914 7.41168 -1.32872
thorax -3.2013 3.68011 -4.83146
lowerneck -13.8275 1.09234 -10.3539
upperneck 45.6041 11.8143 0.876863
head 19.5771 4.58134 5.14334
rclavicle -2.55935e-014 -1.35174e-014
rhumerus -20.3758 -4.39969 -83.9098
rradius 40.6322
rwrist 3.8332
rhand -14.2502 8.41899
rfingers 7.12502
rthumb 11.8878 -21.2235
lclavicle -2.55935e-014 -1.35174e-014
lhumerus -43.9349 11.3914 79.1205
lradius 38.3231
lwrist -6.59734
lhand -18.0162 27.057
lfingers 7.12502
lthumb 8.25474 56.8757
rfemur 0.79694 -2.6967 24.3754
rtibia 23.7539
rfoot -14.4943 1.80388
rtoes -3.95874
lfemur -25.6911 -1.70287 -22.9172
ltibia 20.9152
lfoot 4.48989 -4.28823
ltoes -6.68883
